SplineFontDB: 3.0
FontName: Avara
FullName: Avara
FamilyName: Avara
Weight: Bold
Copyright: Created by Raphael Bastide with FontForge 2.0 (http://fontforge.sf.net). Edited by Wei Huang
Version: 001.000
ItalicAngle: 0
UnderlinePosition: -4
UnderlineWidth: 1
Ascent: 20
Descent: 5
sfntRevision: 0x00010000
LayerCount: 2
Layer: 0 1 "Back"  1
Layer: 1 1 "Fore"  0
XUID: [1021 230 22761 7513]
FSType: 0
OS2Version: 3
OS2_WeightWidthSlopeOnly: 0
OS2_UseTypoMetrics: 1
CreationTime: 1357092492
ModificationTime: 1357123174
PfmFamily: 17
TTFWeight: 700
TTFWidth: 5
LineGap: 2
VLineGap: 0
Panose: 2 0 5 3 0 0 0 0 0 0
OS2TypoAscent: 20
OS2TypoAOffset: 0
OS2TypoDescent: -5
OS2TypoDOffset: 0
OS2TypoLinegap: 2
OS2WinAscent: 21
OS2WinAOffset: 0
OS2WinDescent: 8
OS2WinDOffset: 0
HheadAscent: 20
HheadAOffset: 0
HheadDescent: -5
HheadDOffset: 0
OS2SubXSize: 16
OS2SubYSize: 17
OS2SubXOff: 0
OS2SubYOff: 3
OS2SupXSize: 16
OS2SupYSize: 17
OS2SupXOff: 0
OS2SupYOff: 12
OS2StrikeYSize: 1
OS2StrikeYPos: 6
OS2Vendor: 'PfEd'
OS2CodePages: 00000001.00000000
OS2UnicodeRanges: 00000003.00000000.00000000.00000000
DEI: 91125
TtTable: prep

EndTTInstrs
TtTable: fpgm

EndTTInstrs
ShortTable: maxp 16
  1
  0
  92
  46
  4
  0
  0
  1
  0
  0
  10
  0
  512
  371
  0
  0
EndShort
LangName: 1033 "" "" "Regular" "PfEd: AvaraTwo: 2013" "" "" "" "" "" "" "" "" "" "" "" "" "" "" "Avara" 
GaspTable: 1 65535 2 0
Encoding: UnicodeBmp
Compacted: 1
UnicodeInterp: none
NameList: Adobe Glyph List
DisplaySize: -24
AntiAlias: 1
FitToEm: 1
WinInfo: 0 44 16
BeginChars: 65537 92

StartChar: .notdef
Encoding: 65536 -1 0
Width: 9
Flags: W
LayerCount: 2
Fore
SplineSet
1 0 m 1,0,-1
 1 17 l 1,1,-1
 7 17 l 1,2,-1
 7 0 l 1,3,-1
 1 0 l 1,0,-1
2 1 m 1,4,-1
 6 1 l 1,5,-1
 6 16 l 1,6,-1
 2 16 l 1,7,-1
 2 1 l 1,4,-1
EndSplineSet
EndChar

StartChar: R
Encoding: 82 82 1
Width: 19
Flags: W
LayerCount: 2
Fore
SplineSet
1 20 m 1,0,-1
 10 20 l 1,1,-1
 15 19 l 1,2,-1
 17 15 l 1,3,-1
 15 11 l 1,4,-1
 9 10 l 1,5,-1
 12 9 l 1,6,-1
 18 0 l 1,7,-1
 18 -1 l 1,8,-1
 13 1 l 1,9,-1
 9 8 l 1,10,-1
 8 9 l 1,11,-1
 6 10 l 1,12,-1
 6 2 l 1,13,-1
 8 0 l 1,14,-1
 1 0 l 1,15,-1
 3 2 l 1,16,-1
 3 18 l 1,17,-1
 1 20 l 1,0,-1
7 19 m 1,18,-1
 6 18 l 1,19,-1
 6 11 l 1,20,-1
 10 11 l 1,21,-1
 12 12 l 1,22,-1
 13 15 l 1,23,-1
 12 18 l 1,24,-1
 10 19 l 1,25,-1
 7 19 l 1,18,-1
EndSplineSet
EndChar

StartChar: B
Encoding: 66 66 2
Width: 20
Flags: W
LayerCount: 2
Fore
SplineSet
1 20 m 1,0,-1
 10 20 l 1,1,-1
 15 19 l 1,2,-1
 17 15 l 1,3,-1
 15 11 l 1,4,-1
 12 10 l 1,5,-1
 16 9 l 1,6,-1
 18 5 l 1,7,-1
 16 1 l 1,8,-1
 12 0 l 1,9,-1
 1 0 l 1,10,-1
 3 2 l 1,11,-1
 3 18 l 1,12,-1
 1 20 l 1,0,-1
7 19 m 1,13,-1
 6 18 l 1,14,-1
 6 11 l 1,15,-1
 10 11 l 1,16,-1
 12 12 l 1,17,-1
 13 15 l 1,18,-1
 12 18 l 1,19,-1
 10 19 l 1,20,-1
 7 19 l 1,13,-1
6 10 m 1,21,-1
 6 2 l 1,22,-1
 7 1 l 1,23,-1
 11 1 l 1,24,-1
 13 2 l 1,25,-1
 14 5 l 1,26,-1
 13 8 l 1,27,-1
 10 9 l 1,28,-1
 6 10 l 1,21,-1
EndSplineSet
EndChar

StartChar: a
Encoding: 97 97 3
Width: 14
Flags: W
LayerCount: 2
Fore
SplineSet
5 15 m 1,0,-1
 8 15 l 1,1,-1
 12 13 l 5,2,-1
 12 2 l 1,3,-1
 14 2 l 1,4,-1
 14 1 l 1,5,-1
 11 0 l 1,6,-1
 9 2 l 1,7,-1
 8 1 l 1,8,-1
 5 0 l 1,9,-1
 4 0 l 1,10,-1
 2 4 l 1,11,-1
 2 8 l 1,12,-1
 9 10 l 1,13,-1
 9 12 l 1,14,-1
 8 14 l 1,15,-1
 5 13 l 1,16,-1
 4 11 l 1,17,-1
 2 13 l 1,18,-1
 5 15 l 1,0,-1
9 9 m 1,19,-1
 5 7 l 1,20,-1
 5 4 l 1,21,-1
 6 2 l 1,22,-1
 7 2 l 1,23,-1
 9 4 l 1,24,-1
 9 9 l 1,19,-1
EndSplineSet
EndChar

StartChar: edieresis
Encoding: 235 235 4
Width: 15
Flags: W
LayerCount: 2
Fore
SplineSet
7 15 m 1,0,-1
 9 15 l 1,1,-1
 12 14 l 1,2,-1
 14 10 l 1,3,-1
 13 8 l 1,4,-1
 5 7 l 1,5,-1
 6 2 l 1,6,-1
 9 1 l 1,7,-1
 11 2 l 1,8,-1
 12 4 l 1,9,-1
 14 3 l 1,10,-1
 12 1 l 1,11,-1
 10 0 l 1,12,-1
 7 0 l 1,13,-1
 4 1 l 1,14,-1
 2 5 l 1,15,-1
 2 10 l 1,16,-1
 4 14 l 1,17,-1
 7 15 l 1,0,-1
8 14 m 1,18,-1
 6 13 l 1,19,-1
 5 8 l 1,20,-1
 10 9 l 1,21,-1
 10 13 l 1,22,-1
 8 14 l 1,18,-1
11 19 m 1,23,-1
 12 18 l 1,24,-1
 12 17 l 1,25,-1
 11 16 l 1,26,-1
 9 16 l 1,27,-1
 9 18 l 1,28,-1
 10 19 l 1,29,-1
 11 19 l 1,23,-1
6 19 m 1,30,-1
 7 18 l 1,31,-1
 7 16 l 1,32,-1
 5 16 l 1,33,-1
 4 17 l 1,34,-1
 4 18 l 1,35,-1
 5 19 l 1,36,-1
 6 19 l 1,30,-1
EndSplineSet
EndChar

StartChar: g
Encoding: 103 103 5
Width: 15
Flags: W
LayerCount: 2
Fore
SplineSet
14 15 m 1,0,-1
 15 12 l 1,1,-1
 14 12 l 1,2,-1
 11 13 l 1,3,-1
 13 11 l 1,4,-1
 13 7 l 1,5,-1
 12 6 l 1,6,-1
 9 4 l 1,7,-1
 6 3 l 1,8,-1
 11 1 l 1,9,-1
 14 -2 l 1,10,-1
 14 -4 l 1,11,-1
 12 -7 l 1,12,-1
 9 -8 l 1,13,-1
 7 -8 l 1,14,-1
 3 -7 l 1,15,-1
 1 -4 l 1,16,-1
 1 -2 l 1,17,-1
 5 1 l 1,18,-1
 2 2 l 1,19,-1
 3 3 l 1,20,-1
 6 4 l 1,21,-1
 3 5 l 1,22,-1
 1 7 l 1,23,-1
 1 11 l 1,24,-1
 3 14 l 1,25,-1
 6 15 l 1,26,-1
 8 15 l 1,27,-1
 11 14 l 1,28,-1
 12 14 l 1,29,-1
 14 15 l 1,0,-1
7 14 m 1,30,-1
 5 13 l 1,31,-1
 4 10 l 1,32,-1
 5 6 l 1,33,-1
 7 5 l 1,34,-1
 9 6 l 1,35,-1
 10 10 l 1,36,-1
 9 13 l 1,37,-1
 7 14 l 1,30,-1
6 0 m 1,38,-1
 4 -2 l 1,39,-1
 4 -4 l 1,40,-1
 6 -6 l 1,41,-1
 9 -7 l 1,42,-1
 11 -5 l 1,43,-1
 11 -3 l 1,44,-1
 9 -1 l 1,45,-1
 6 0 l 1,38,-1
EndSplineSet
EndChar

StartChar: t
Encoding: 116 116 6
Width: 10
Flags: W
LayerCount: 2
Fore
SplineSet
6 18 m 1,0,-1
 6 14 l 1,1,-1
 8 14 l 1,2,-1
 8 13 l 1,3,-1
 6 13 l 1,4,-1
 6 2 l 1,5,-1
 7 1 l 1,6,-1
 8 3 l 1,7,-1
 9 2 l 1,8,-1
 8 0 l 1,9,-1
 5 0 l 1,10,-1
 3 2 l 1,11,-1
 3 13 l 1,12,-1
 1 13 l 1,13,-1
 1 14 l 1,14,-1
 3 15 l 1,15,-1
 4 16 l 1,16,-1
 5 18 l 1,17,-1
 6 18 l 1,0,-1
EndSplineSet
EndChar

StartChar: p
Encoding: 112 112 7
Width: 17
Flags: W
LayerCount: 2
Fore
SplineSet
10 15 m 1,0,-1
 13 14 l 1,1,-1
 15 10 l 1,2,-1
 15 5 l 1,3,-1
 13 1 l 1,4,-1
 10 0 l 1,5,-1
 8 0 l 1,6,-1
 6 1 l 1,7,-1
 6 -6 l 1,8,-1
 8 -8 l 1,9,-1
 1 -8 l 1,10,-1
 3 -6 l 1,11,-1
 3 12 l 1,12,-1
 1 13 l 1,13,-1
 5 15 l 1,14,-1
 6 13 l 1,15,-1
 8 15 l 1,16,-1
 10 15 l 1,0,-1
9 14 m 1,17,-1
 6 11 l 1,18,-1
 6 4 l 1,19,-1
 7 2 l 1,20,-1
 9 1 l 1,21,-1
 11 2 l 1,22,-1
 12 8 l 1,23,-1
 11 13 l 1,24,-1
 9 14 l 1,17,-1
EndSplineSet
EndChar

StartChar: o
Encoding: 111 111 8
Width: 16
Flags: W
LayerCount: 2
Fore
SplineSet
7 15 m 1,0,-1
 9 15 l 1,1,-1
 12 14 l 1,2,-1
 14 10 l 1,3,-1
 14 5 l 1,4,-1
 12 1 l 1,5,-1
 9 0 l 1,6,-1
 7 0 l 1,7,-1
 4 1 l 1,8,-1
 2 5 l 1,9,-1
 2 10 l 1,10,-1
 4 14 l 1,11,-1
 7 15 l 1,0,-1
8 14 m 1,12,-1
 6 13 l 1,13,-1
 5 8 l 1,14,-1
 6 2 l 1,15,-1
 8 1 l 1,16,-1
 10 2 l 1,17,-1
 11 8 l 1,18,-1
 10 13 l 1,19,-1
 8 14 l 1,12,-1
EndSplineSet
EndChar

StartChar: r
Encoding: 114 114 9
Width: 13
Flags: W
LayerCount: 2
Fore
SplineSet
5 15 m 1,0,-1
 6 11 l 1,1,-1
 8 14 l 1,2,-1
 10 15 l 1,3,-1
 12 14 l 1,4,-1
 13 12 l 1,5,-1
 10 10 l 1,6,-1
 9 12 l 1,7,-1
 8 12 l 1,8,-1
 6 9 l 1,9,-1
 6 2 l 1,10,-1
 8 0 l 1,11,-1
 1 0 l 1,12,-1
 3 2 l 1,13,-1
 3 12 l 1,14,-1
 1 13 l 1,15,-1
 5 15 l 1,0,-1
EndSplineSet
EndChar

StartChar: s
Encoding: 115 115 10
Width: 13
Flags: W
LayerCount: 2
Fore
SplineSet
9 11 m 1,0,-1
 8 14 l 1,1,-1
 6 14 l 1,2,-1
 4 13 l 1,3,-1
 4 11 l 1,4,-1
 11 7 l 1,5,-1
 12 5 l 1,6,-1
 10 1 l 1,7,-1
 6 0 l 1,8,-1
 5 0 l 1,9,-1
 2 1 l 1,10,-1
 0 3 l 1,11,-1
 2 5 l 1,12,-1
 3 2 l 1,13,-1
 5 1 l 1,14,-1
 8 2 l 1,15,-1
 9 3 l 1,16,-1
 9 4 l 1,17,-1
 2 9 l 1,18,-1
 1 11 l 1,19,-1
 2 14 l 1,20,-1
 5 15 l 1,21,-1
 9 15 l 1,22,-1
 11 13 l 1,23,-1
 9 11 l 1,0,-1
EndSplineSet
EndChar

StartChar: u
Encoding: 117 117 11
Width: 17
Flags: W
LayerCount: 2
Fore
SplineSet
16 1 m 1,0,-1
 13 0 l 1,1,-1
 11 2 l 1,2,-1
 10 1 l 1,3,-1
 8 0 l 1,4,-1
 7 0 l 1,5,-1
 4 1 l 1,6,-1
 3 3 l 1,7,-1
 3 13 l 1,8,-1
 1 14 l 1,9,-1
 6 15 l 1,10,-1
 6 3 l 1,11,-1
 7 2 l 1,12,-1
 9 2 l 1,13,-1
 10 3 l 1,14,-1
 11 5 l 1,15,-1
 11 13 l 1,16,-1
 9 14 l 1,17,-1
 14 15 l 1,18,-1
 14 2 l 1,19,-1
 16 2 l 1,20,-1
 16 1 l 1,0,-1
EndSplineSet
EndChar

StartChar: e
Encoding: 101 101 12
Width: 15
Flags: W
LayerCount: 2
Fore
SplineSet
7 15 m 1,0,-1
 9 15 l 1,1,-1
 12 14 l 1,2,-1
 14 10 l 1,3,-1
 13 8 l 1,4,-1
 5 7 l 1,5,-1
 6 2 l 1,6,-1
 9 1 l 1,7,-1
 11 2 l 1,8,-1
 12 4 l 1,9,-1
 14 3 l 1,10,-1
 12 1 l 1,11,-1
 10 0 l 1,12,-1
 7 0 l 1,13,-1
 4 1 l 1,14,-1
 2 5 l 1,15,-1
 2 10 l 1,16,-1
 4 14 l 1,17,-1
 7 15 l 1,0,-1
8 14 m 1,18,-1
 6 13 l 1,19,-1
 5 8 l 1,20,-1
 10 9 l 1,21,-1
 10 13 l 1,22,-1
 8 14 l 1,18,-1
EndSplineSet
EndChar

StartChar: i
Encoding: 105 105 13
Width: 9
Flags: W
LayerCount: 2
Fore
SplineSet
1 13 m 1,0,-1
 6 15 l 1,1,-1
 6 2 l 1,2,-1
 8 0 l 1,3,-1
 1 0 l 1,4,-1
 3 2 l 1,5,-1
 3 12 l 1,6,-1
 1 13 l 1,0,-1
4 16 m 1,7,-1
 2 17 l 1,8,-1
 2 18 l 1,9,-1
 3 20 l 1,10,-1
 4 20 l 1,11,-1
 6 19 l 1,12,-1
 6 18 l 1,13,-1
 5 16 l 1,14,-1
 4 16 l 1,7,-1
EndSplineSet
EndChar

StartChar: h
Encoding: 104 104 14
Width: 18
Flags: W
LayerCount: 2
Fore
SplineSet
1 19 m 1,0,-1
 6 21 l 1,1,-1
 6 12 l 1,2,-1
 8 14 l 1,3,-1
 10 15 l 1,4,-1
 14 14 l 1,5,-1
 15 12 l 1,6,-1
 15 2 l 1,7,-1
 17 0 l 1,8,-1
 10 0 l 1,9,-1
 12 2 l 1,10,-1
 12 12 l 1,11,-1
 11 13 l 1,12,-1
 9 13 l 1,13,-1
 6 10 l 1,14,-1
 6 2 l 1,15,-1
 8 0 l 1,16,-1
 5 0 l 1,17,-1
 3 0 l 1,18,-1
 1 0 l 1,19,-1
 3 2 l 1,20,-1
 3 18 l 1,21,-1
 1 19 l 1,0,-1
EndSplineSet
EndChar

StartChar: l
Encoding: 108 108 15
Width: 9
Flags: W
LayerCount: 2
Fore
SplineSet
1 19 m 1,0,-1
 6 21 l 1,1,-1
 6 2 l 1,2,-1
 8 0 l 1,3,-1
 1 0 l 1,4,-1
 3 2 l 1,5,-1
 3 18 l 1,6,-1
 1 19 l 1,0,-1
EndSplineSet
EndChar

StartChar: m
Encoding: 109 109 16
Width: 26
Flags: W
LayerCount: 2
Fore
SplineSet
1 0 m 1,0,-1
 3 2 l 1,1,-1
 3 12 l 1,2,-1
 1 13 l 1,3,-1
 5 15 l 1,4,-1
 6 12 l 1,5,-1
 8 14 l 1,6,-1
 10 15 l 1,7,-1
 14 14 l 1,8,-1
 15 12 l 1,9,-1
 17 14 l 1,10,-1
 19 15 l 1,11,-1
 23 14 l 1,12,-1
 24 12 l 1,13,-1
 24 2 l 1,14,-1
 26 0 l 1,15,-1
 19 0 l 1,16,-1
 21 2 l 1,17,-1
 21 12 l 1,18,-1
 20 13 l 1,19,-1
 18 13 l 1,20,-1
 15 10 l 1,21,-1
 15 2 l 1,22,-1
 17 0 l 1,23,-1
 10 0 l 1,24,-1
 12 2 l 1,25,-1
 12 12 l 1,26,-1
 11 13 l 1,27,-1
 9 13 l 1,28,-1
 6 10 l 1,29,-1
 6 2 l 1,30,-1
 8 0 l 1,31,-1
 1 0 l 1,0,-1
EndSplineSet
EndChar

StartChar: n
Encoding: 110 110 17
Width: 17
Flags: W
LayerCount: 2
Fore
SplineSet
1 0 m 1,0,-1
 3 2 l 1,1,-1
 3 12 l 1,2,-1
 1 13 l 1,3,-1
 5 15 l 1,4,-1
 6 12 l 1,5,-1
 8 14 l 1,6,-1
 10 15 l 1,7,-1
 14 14 l 1,8,-1
 15 12 l 1,9,-1
 15 2 l 1,10,-1
 17 0 l 1,11,-1
 10 0 l 1,12,-1
 12 2 l 1,13,-1
 12 12 l 1,14,-1
 11 13 l 1,15,-1
 9 13 l 1,16,-1
 6 10 l 1,17,-1
 6 2 l 1,18,-1
 8 0 l 1,19,-1
 1 0 l 1,0,-1
EndSplineSet
EndChar

StartChar: q
Encoding: 113 113 18
Width: 17
Flags: W
LayerCount: 2
Fore
SplineSet
15 15 m 1,0,-1
 14 13 l 1,1,-1
 14 -6 l 1,2,-1
 16 -8 l 1,3,-1
 9 -8 l 1,4,-1
 11 -6 l 1,5,-1
 11 1 l 1,6,-1
 9 0 l 1,7,-1
 7 0 l 1,8,-1
 4 1 l 1,9,-1
 2 5 l 1,10,-1
 2 10 l 1,11,-1
 4 14 l 1,12,-1
 7 15 l 1,13,-1
 9 15 l 1,14,-1
 12 14 l 1,15,-1
 13 15 l 1,16,-1
 15 15 l 1,0,-1
8 14 m 1,17,-1
 6 13 l 1,18,-1
 5 8 l 1,19,-1
 6 2 l 1,20,-1
 8 1 l 1,21,-1
 10 2 l 1,22,-1
 11 4 l 1,23,-1
 11 11 l 1,24,-1
 10 13 l 1,25,-1
 8 14 l 1,17,-1
EndSplineSet
EndChar

StartChar: d
Encoding: 100 100 19
Width: 17
Flags: W
LayerCount: 2
Fore
SplineSet
14 21 m 1,0,-1
 14 2 l 1,1,-1
 16 2 l 1,2,-1
 16 1 l 1,3,-1
 13 0 l 1,4,-1
 12 2 l 1,5,-1
 11 1 l 1,6,-1
 9 0 l 1,7,-1
 7 0 l 1,8,-1
 4 1 l 1,9,-1
 2 5 l 1,10,-1
 2 10 l 1,11,-1
 4 14 l 1,12,-1
 7 15 l 1,13,-1
 9 15 l 1,14,-1
 11 14 l 1,15,-1
 11 18 l 1,16,-1
 9 19 l 1,17,-1
 14 21 l 1,0,-1
8 14 m 1,18,-1
 6 13 l 1,19,-1
 5 7 l 1,20,-1
 6 2 l 1,21,-1
 8 1 l 1,22,-1
 10 2 l 1,23,-1
 11 4 l 1,24,-1
 11 11 l 1,25,-1
 10 13 l 1,26,-1
 8 14 l 1,18,-1
EndSplineSet
EndChar

StartChar: at
Encoding: 64 64 20
Width: 20
Flags: W
LayerCount: 2
Fore
SplineSet
12 11 m 1,0,-1
 9 11 l 1,1,-1
 8 10 l 1,2,-1
 7 6 l 1,3,-1
 8 3 l 1,4,-1
 10 2 l 1,5,-1
 11 4 l 1,6,-1
 12 11 l 1,0,-1
1 13 m 1,7,-1
 5 16 l 1,8,-1
 10 17 l 1,9,-1
 15 16 l 1,10,-1
 19 13 l 1,11,-1
 19 5 l 1,12,-1
 17 1 l 1,13,-1
 14 0 l 1,14,-1
 12 3 l 1,15,-1
 11 1 l 1,16,-1
 7 0 l 1,17,-1
 4 4 l 1,18,-1
 4 8 l 1,19,-1
 5 11 l 1,20,-1
 8 13 l 1,21,-1
 12 12 l 1,22,-1
 13 13 l 1,23,-1
 15 13 l 1,24,-1
 14 5 l 1,25,-1
 15 2 l 1,26,-1
 17 5 l 1,27,-1
 17 12 l 1,28,-1
 14 15 l 1,29,-1
 10 16 l 1,30,-1
 6 15 l 1,31,-1
 3 12 l 1,32,-1
 2 7 l 1,33,-1
 3 3 l 1,34,-1
 6 -2 l 1,35,-1
 12 -1 l 1,36,-1
 12 -2 l 1,37,-1
 5 -3 l 1,38,-1
 1 2 l 1,39,-1
 0 7 l 1,40,-1
 1 13 l 1,7,-1
EndSplineSet
EndChar

StartChar: b
Encoding: 98 98 21
Width: 17
Flags: W
LayerCount: 2
Fore
SplineSet
3 18 m 1,0,-1
 1 19 l 1,1,-1
 6 21 l 1,2,-1
 6 14 l 1,3,-1
 8 15 l 1,4,-1
 10 15 l 1,5,-1
 13 14 l 1,6,-1
 15 10 l 1,7,-1
 15 5 l 1,8,-1
 13 1 l 1,9,-1
 10 0 l 1,10,-1
 8 0 l 1,11,-1
 6 1 l 1,12,-1
 5 2 l 1,13,-1
 3 0 l 1,14,-1
 3 18 l 1,0,-1
9 14 m 1,15,-1
 7 13 l 1,16,-1
 6 11 l 1,17,-1
 6 4 l 1,18,-1
 7 2 l 1,19,-1
 9 1 l 1,20,-1
 11 2 l 1,21,-1
 12 8 l 1,22,-1
 11 13 l 1,23,-1
 9 14 l 1,15,-1
EndSplineSet
EndChar

StartChar: j
Encoding: 106 106 22
Width: 9
Flags: W
LayerCount: 2
Fore
SplineSet
1 13 m 1,0,-1
 6 15 l 1,1,-1
 6 -5 l 1,2,-1
 4 -7 l 1,3,-1
 2 -8 l 1,4,-1
 -1 -7 l 1,5,-1
 -2 -6 l 1,6,-1
 -2 -4 l 1,7,-1
 0 -2 l 1,8,-1
 1 -3 l 1,9,-1
 0 -5 l 1,10,-1
 0 -6 l 1,11,-1
 2 -7 l 1,12,-1
 3 -5 l 1,13,-1
 3 12 l 1,14,-1
 1 13 l 1,0,-1
4 16 m 1,15,-1
 2 17 l 1,16,-1
 2 18 l 1,17,-1
 3 20 l 1,18,-1
 4 20 l 1,19,-1
 6 19 l 1,20,-1
 6 18 l 1,21,-1
 5 16 l 1,22,-1
 4 16 l 1,15,-1
EndSplineSet
EndChar

StartChar: c
Encoding: 99 99 23
Width: 14
Flags: W
LayerCount: 2
Fore
SplineSet
10 13 m 1,0,-1
 8 14 l 1,1,-1
 6 13 l 1,2,-1
 5 9 l 1,3,-1
 5 6 l 1,4,-1
 6 2 l 1,5,-1
 9 1 l 1,6,-1
 11 2 l 1,7,-1
 12 4 l 1,8,-1
 14 3 l 1,9,-1
 12 1 l 1,10,-1
 10 0 l 1,11,-1
 7 0 l 1,12,-1
 4 1 l 1,13,-1
 2 5 l 1,14,-1
 2 10 l 1,15,-1
 4 14 l 1,16,-1
 7 15 l 1,17,-1
 9 15 l 1,18,-1
 12 14 l 1,19,-1
 13 12 l 1,20,-1
 11 10 l 1,21,-1
 10 13 l 1,0,-1
EndSplineSet
EndChar

StartChar: period
Encoding: 46 46 24
Width: 5
Flags: W
LayerCount: 2
Fore
SplineSet
2 0 m 1,0,-1
 0 1 l 1,1,-1
 0 2 l 1,2,-1
 1 4 l 1,3,-1
 2 4 l 1,4,-1
 4 3 l 1,5,-1
 4 2 l 1,6,-1
 3 0 l 1,7,-1
 2 0 l 1,0,-1
EndSplineSet
EndChar

StartChar: A
Encoding: 65 65 25
Width: 19
Flags: W
LayerCount: 2
Fore
SplineSet
9 16 m 1,0,-1
 4 2 l 1,1,-1
 6 0 l 1,2,-1
 0 0 l 1,3,-1
 2 2 l 1,4,-1
 8 18 l 1,5,-1
 8 19 l 1,6,-1
 11 20 l 1,7,-1
 17 2 l 1,8,-1
 19 0 l 1,9,-1
 13 0 l 1,10,-1
 14 2 l 1,11,-1
 9 16 l 1,0,-1
5 7 m 1,12,-1
 14 7 l 1,13,-1
 14 6 l 1,14,-1
 5 6 l 1,15,-1
 5 7 l 1,12,-1
EndSplineSet
EndChar

StartChar: C
Encoding: 67 67 26
Width: 20
Flags: W
LayerCount: 2
Fore
SplineSet
6 6 m 1,0,-1
 8 2 l 1,1,-1
 12 1 l 1,2,-1
 15 2 l 1,3,-1
 17 4 l 1,4,-1
 18 6 l 1,5,-1
 19 5 l 1,6,-1
 17 2 l 1,7,-1
 14 0 l 1,8,-1
 9 0 l 1,9,-1
 5 2 l 1,10,-1
 3 5 l 1,11,-1
 2 10 l 1,12,-1
 3 15 l 1,13,-1
 5 18 l 1,14,-1
 9 20 l 1,15,-1
 14 20 l 1,16,-1
 18 18 l 1,17,-1
 19 16 l 1,18,-1
 17 14 l 1,19,-1
 15 14 l 1,20,-1
 15 17 l 1,21,-1
 13 19 l 1,22,-1
 11 19 l 1,23,-1
 8 17 l 1,24,-1
 6 14 l 1,25,-1
 6 6 l 1,0,-1
EndSplineSet
EndChar

StartChar: D
Encoding: 68 68 27
Width: 21
Flags: W
LayerCount: 2
Fore
SplineSet
1 20 m 1,0,-1
 10 20 l 1,1,-1
 15 18 l 1,2,-1
 18 15 l 1,3,-1
 19 10 l 1,4,-1
 18 5 l 1,5,-1
 16 2 l 1,6,-1
 12 0 l 1,7,-1
 1 0 l 1,8,-1
 3 2 l 1,9,-1
 3 18 l 1,10,-1
 1 20 l 1,0,-1
15 14 m 1,11,-1
 14 16 l 1,12,-1
 12 18 l 1,13,-1
 10 19 l 1,14,-1
 7 19 l 1,15,-1
 6 18 l 1,16,-1
 6 2 l 1,17,-1
 7 1 l 1,18,-1
 11 1 l 1,19,-1
 13 2 l 1,20,-1
 15 5 l 1,21,-1
 15 14 l 1,11,-1
EndSplineSet
EndChar

StartChar: E
Encoding: 69 69 28
Width: 18
Flags: W
LayerCount: 2
Fore
SplineSet
17 5 m 1,0,-1
 17 0 l 1,1,-1
 1 0 l 1,2,-1
 3 2 l 1,3,-1
 3 18 l 1,4,-1
 1 20 l 1,5,-1
 16 20 l 1,6,-1
 16 16 l 1,7,-1
 15 16 l 1,8,-1
 13 19 l 1,9,-1
 7 19 l 1,10,-1
 6 18 l 1,11,-1
 6 12 l 1,12,-1
 7 11 l 1,13,-1
 11 11 l 1,14,-1
 13 13 l 1,15,-1
 13 8 l 1,16,-1
 11 10 l 1,17,-1
 7 10 l 1,18,-1
 6 9 l 1,19,-1
 6 2 l 1,20,-1
 7 1 l 1,21,-1
 14 1 l 1,22,-1
 16 5 l 1,23,-1
 17 5 l 1,0,-1
EndSplineSet
EndChar

StartChar: F
Encoding: 70 70 29
Width: 17
Flags: W
LayerCount: 2
Fore
SplineSet
1 0 m 1,0,-1
 3 2 l 1,1,-1
 3 18 l 1,2,-1
 1 20 l 1,3,-1
 16 20 l 1,4,-1
 16 16 l 1,5,-1
 15 16 l 1,6,-1
 13 19 l 1,7,-1
 7 19 l 1,8,-1
 6 18 l 1,9,-1
 6 12 l 1,10,-1
 7 11 l 1,11,-1
 11 11 l 1,12,-1
 13 13 l 1,13,-1
 13 8 l 1,14,-1
 11 10 l 1,15,-1
 7 10 l 1,16,-1
 6 9 l 1,17,-1
 6 2 l 1,18,-1
 8 0 l 1,19,-1
 1 0 l 1,0,-1
EndSplineSet
EndChar

StartChar: G
Encoding: 71 71 30
Width: 22
Flags: W
LayerCount: 2
Fore
SplineSet
6 6 m 1,0,-1
 8 2 l 1,1,-1
 13 1 l 1,2,-1
 16 3 l 1,3,-1
 16 7 l 1,4,-1
 14 9 l 1,5,-1
 21 9 l 1,6,-1
 19 7 l 1,7,-1
 19 0 l 1,8,-1
 17 2 l 1,9,-1
 14 0 l 1,10,-1
 9 0 l 1,11,-1
 5 2 l 1,12,-1
 3 5 l 1,13,-1
 2 10 l 1,14,-1
 3 15 l 1,15,-1
 5 18 l 1,16,-1
 9 20 l 1,17,-1
 14 20 l 1,18,-1
 18 18 l 1,19,-1
 19 16 l 1,20,-1
 17 14 l 1,21,-1
 15 14 l 1,22,-1
 15 17 l 1,23,-1
 13 19 l 1,24,-1
 11 19 l 1,25,-1
 8 17 l 1,26,-1
 6 14 l 1,27,-1
 6 6 l 1,0,-1
EndSplineSet
EndChar

StartChar: H
Encoding: 72 72 31
Width: 21
Flags: W
LayerCount: 2
Fore
SplineSet
8 20 m 1,0,-1
 6 18 l 1,1,-1
 6 12 l 1,2,-1
 7 11 l 1,3,-1
 14 11 l 1,4,-1
 15 12 l 1,5,-1
 15 18 l 1,6,-1
 13 20 l 1,7,-1
 20 20 l 1,8,-1
 18 18 l 1,9,-1
 18 2 l 1,10,-1
 20 0 l 1,11,-1
 13 0 l 1,12,-1
 15 2 l 1,13,-1
 15 9 l 1,14,-1
 14 10 l 1,15,-1
 7 10 l 1,16,-1
 6 9 l 1,17,-1
 6 2 l 1,18,-1
 8 0 l 1,19,-1
 1 0 l 1,20,-1
 3 2 l 1,21,-1
 3 18 l 1,22,-1
 1 20 l 1,23,-1
 8 20 l 1,0,-1
EndSplineSet
EndChar

StartChar: I
Encoding: 73 73 32
Width: 9
Flags: W
LayerCount: 2
Fore
SplineSet
6 2 m 1,0,-1
 8 0 l 1,1,-1
 1 0 l 1,2,-1
 3 2 l 1,3,-1
 3 18 l 1,4,-1
 1 20 l 1,5,-1
 8 20 l 1,6,-1
 6 18 l 1,7,-1
 6 2 l 1,0,-1
EndSplineSet
EndChar

StartChar: J
Encoding: 74 74 33
Width: 15
Flags: W
LayerCount: 2
Fore
SplineSet
5 0 m 1,0,-1
 2 2 l 1,1,-1
 1 5 l 1,2,-1
 4 7 l 1,3,-1
 6 6 l 1,4,-1
 5 3 l 1,5,-1
 6 1 l 1,6,-1
 8 1 l 1,7,-1
 9 3 l 1,8,-1
 9 18 l 1,9,-1
 7 20 l 1,10,-1
 14 20 l 1,11,-1
 12 18 l 1,12,-1
 12 2 l 1,13,-1
 10 0 l 1,14,-1
 5 0 l 1,0,-1
EndSplineSet
EndChar

StartChar: K
Encoding: 75 75 34
Width: 20
Flags: W
LayerCount: 2
Fore
SplineSet
19 0 m 1,0,-1
 15 0 l 1,1,-1
 14 1 l 1,2,-1
 10 8 l 1,3,-1
 8 10 l 1,4,-1
 6 8 l 1,5,-1
 6 2 l 1,6,-1
 8 0 l 1,7,-1
 1 0 l 1,8,-1
 3 2 l 1,9,-1
 3 18 l 1,10,-1
 1 20 l 1,11,-1
 8 20 l 1,12,-1
 6 18 l 1,13,-1
 6 10 l 1,14,-1
 14 18 l 1,15,-1
 12 20 l 1,16,-1
 18 20 l 1,17,-1
 16 18 l 1,18,-1
 9 11 l 1,19,-1
 13 9 l 1,20,-1
 19 0 l 1,0,-1
EndSplineSet
EndChar

StartChar: L
Encoding: 76 76 35
Width: 17
Flags: W
LayerCount: 2
Fore
SplineSet
13 0 m 1,0,-1
 1 0 l 1,1,-1
 3 2 l 1,2,-1
 3 18 l 1,3,-1
 1 20 l 1,4,-1
 8 20 l 1,5,-1
 6 18 l 1,6,-1
 6 2 l 1,7,-1
 7 1 l 1,8,-1
 12 1 l 1,9,-1
 15 6 l 1,10,-1
 16 6 l 1,11,-1
 15 -1 l 1,12,-1
 13 0 l 1,0,-1
EndSplineSet
EndChar

StartChar: f
Encoding: 102 102 36
Width: 10
Flags: W
LayerCount: 2
Fore
SplineSet
6 14 m 1,0,-1
 9 14 l 1,1,-1
 9 13 l 1,2,-1
 8 13 l 1,3,-1
 6 12 l 1,4,-1
 6 2 l 1,5,-1
 8 0 l 1,6,-1
 1 0 l 1,7,-1
 3 2 l 1,8,-1
 3 12 l 1,9,-1
 2 13 l 1,10,-1
 2 14 l 1,11,-1
 3 14 l 1,12,-1
 3 17 l 1,13,-1
 4 19 l 1,14,-1
 5 20 l 1,15,-1
 9 21 l 1,16,-1
 11 20 l 1,17,-1
 11 17 l 1,18,-1
 10 16 l 1,19,-1
 8 17 l 1,20,-1
 9 19 l 1,21,-1
 8 20 l 1,22,-1
 6 19 l 1,23,-1
 5 17 l 1,24,-1
 6 14 l 1,0,-1
EndSplineSet
EndChar

StartChar: M
Encoding: 77 77 37
Width: 25
Flags: W
LayerCount: 2
Fore
SplineSet
13 6 m 1,0,-1
 18 20 l 1,1,-1
 24 20 l 1,2,-1
 22 18 l 1,3,-1
 22 2 l 1,4,-1
 24 0 l 1,5,-1
 17 0 l 1,6,-1
 19 2 l 1,7,-1
 19 16 l 1,8,-1
 12 -1 l 1,9,-1
 5 16 l 1,10,-1
 5 2 l 1,11,-1
 7 0 l 1,12,-1
 1 0 l 1,13,-1
 3 2 l 1,14,-1
 3 18 l 1,15,-1
 1 20 l 1,16,-1
 7 20 l 1,17,-1
 13 6 l 1,0,-1
EndSplineSet
EndChar

StartChar: N
Encoding: 78 78 38
Width: 21
Flags: W
LayerCount: 2
Fore
SplineSet
18 -1 m 1,0,-1
 16 0 l 1,1,-1
 5 17 l 1,2,-1
 5 2 l 1,3,-1
 7 0 l 1,4,-1
 1 0 l 1,5,-1
 3 2 l 1,6,-1
 3 18 l 1,7,-1
 1 20 l 1,8,-1
 7 20 l 1,9,-1
 16 7 l 1,10,-1
 16 18 l 1,11,-1
 14 20 l 1,12,-1
 20 20 l 1,13,-1
 18 18 l 1,14,-1
 18 -1 l 1,0,-1
EndSplineSet
EndChar

StartChar: O
Encoding: 79 79 39
Width: 24
Flags: W
LayerCount: 2
Fore
SplineSet
18 14 m 1,0,-1
 16 18 l 1,1,-1
 12 19 l 1,2,-1
 8 18 l 1,3,-1
 6 14 l 1,4,-1
 6 6 l 1,5,-1
 8 2 l 1,6,-1
 12 1 l 1,7,-1
 16 2 l 1,8,-1
 18 6 l 1,9,-1
 18 14 l 1,0,-1
19 2 m 1,10,-1
 15 0 l 1,11,-1
 9 0 l 1,12,-1
 5 2 l 1,13,-1
 3 5 l 1,14,-1
 2 10 l 1,15,-1
 3 15 l 1,16,-1
 5 18 l 1,17,-1
 9 20 l 1,18,-1
 15 20 l 1,19,-1
 19 18 l 1,20,-1
 21 15 l 1,21,-1
 22 10 l 1,22,-1
 21 5 l 1,23,-1
 19 2 l 1,10,-1
EndSplineSet
EndChar

StartChar: P
Encoding: 80 80 40
Width: 19
Flags: W
LayerCount: 2
Fore
SplineSet
6 9 m 1,0,-1
 6 2 l 1,1,-1
 8 0 l 1,2,-1
 1 0 l 1,3,-1
 3 2 l 1,4,-1
 3 18 l 1,5,-1
 1 20 l 1,6,-1
 10 20 l 1,7,-1
 15 19 l 1,8,-1
 17 15 l 1,9,-1
 15 10 l 1,10,-1
 10 8 l 1,11,-1
 6 9 l 1,0,-1
7 19 m 1,12,-1
 6 18 l 1,13,-1
 6 10 l 1,14,-1
 9 10 l 1,15,-1
 12 11 l 1,16,-1
 13 15 l 1,17,-1
 12 18 l 1,18,-1
 10 19 l 1,19,-1
 7 19 l 1,12,-1
EndSplineSet
EndChar

StartChar: Q
Encoding: 81 81 41
Width: 24
Flags: W
LayerCount: 2
Fore
SplineSet
14 1 m 1,0,-1
 16 2 l 1,1,-1
 18 6 l 1,2,-1
 18 14 l 1,3,-1
 16 18 l 1,4,-1
 12 19 l 1,5,-1
 8 18 l 1,6,-1
 6 14 l 1,7,-1
 6 6 l 1,8,-1
 7 3 l 1,9,-1
 8 5 l 1,10,-1
 11 5 l 1,11,-1
 13 3 l 1,12,-1
 14 1 l 1,0,-1
14 0 m 1,13,-1
 15 -1 l 1,14,-1
 16 -2 l 1,15,-1
 18 -2 l 1,16,-1
 19 -1 l 1,17,-1
 20 1 l 1,18,-1
 22 -1 l 1,19,-1
 21 -2 l 1,20,-1
 18 -3 l 1,21,-1
 16 -3 l 1,22,-1
 13 -1 l 1,23,-1
 12 0 l 1,24,-1
 9 0 l 1,25,-1
 5 2 l 1,26,-1
 3 5 l 1,27,-1
 2 10 l 1,28,-1
 3 15 l 1,29,-1
 5 18 l 1,30,-1
 9 20 l 1,31,-1
 15 20 l 1,32,-1
 19 18 l 1,33,-1
 21 15 l 1,34,-1
 22 10 l 1,35,-1
 21 5 l 1,36,-1
 19 2 l 1,37,-1
 14 0 l 1,13,-1
8 2 m 1,38,-1
 10 1 l 1,39,-1
 12 1 l 1,40,-1
 11 3 l 1,41,-1
 9 4 l 1,42,-1
 8 3 l 1,43,-1
 8 2 l 1,38,-1
EndSplineSet
EndChar

StartChar: S
Encoding: 83 83 42
Width: 18
Flags: W
LayerCount: 2
Fore
SplineSet
5 14 m 1,0,-1
 6 13 l 1,1,-1
 14 10 l 1,2,-1
 16 9 l 1,3,-1
 17 6 l 1,4,-1
 15 3 l 1,5,-1
 11 0 l 1,6,-1
 6 0 l 1,7,-1
 2 2 l 1,8,-1
 1 4 l 1,9,-1
 3 6 l 1,10,-1
 5 6 l 1,11,-1
 5 3 l 1,12,-1
 7 1 l 1,13,-1
 10 1 l 1,14,-1
 12 3 l 1,15,-1
 13 5 l 1,16,-1
 12 7 l 1,17,-1
 4 10 l 1,18,-1
 2 13 l 1,19,-1
 2 15 l 1,20,-1
 4 18 l 1,21,-1
 7 20 l 1,22,-1
 11 20 l 1,23,-1
 15 18 l 1,24,-1
 16 16 l 1,25,-1
 14 14 l 1,26,-1
 13 14 l 1,27,-1
 12 17 l 1,28,-1
 10 19 l 1,29,-1
 8 19 l 1,30,-1
 6 18 l 1,31,-1
 5 16 l 1,32,-1
 5 14 l 1,0,-1
EndSplineSet
EndChar

StartChar: T
Encoding: 84 84 43
Width: 17
Flags: W
LayerCount: 2
Fore
SplineSet
17 16 m 1,0,-1
 16 16 l 1,1,-1
 14 18 l 1,2,-1
 10 19 l 1,3,-1
 10 2 l 1,4,-1
 12 0 l 1,5,-1
 5 0 l 1,6,-1
 7 2 l 1,7,-1
 7 19 l 1,8,-1
 3 18 l 1,9,-1
 1 16 l 1,10,-1
 0 16 l 1,11,-1
 1 21 l 1,12,-1
 5 20 l 1,13,-1
 12 20 l 1,14,-1
 16 21 l 1,15,-1
 17 16 l 1,0,-1
EndSplineSet
EndChar

StartChar: U
Encoding: 85 85 44
Width: 21
Flags: W
LayerCount: 2
Fore
SplineSet
18 6 m 1,0,-1
 17 3 l 1,1,-1
 15 1 l 1,2,-1
 12 0 l 1,3,-1
 9 0 l 1,4,-1
 6 1 l 1,5,-1
 4 3 l 1,6,-1
 3 6 l 1,7,-1
 3 18 l 1,8,-1
 1 20 l 1,9,-1
 8 20 l 1,10,-1
 6 18 l 1,11,-1
 6 6 l 1,12,-1
 7 3 l 1,13,-1
 8 2 l 1,14,-1
 11 1 l 1,15,-1
 14 2 l 1,16,-1
 15 3 l 1,17,-1
 16 6 l 1,18,-1
 16 18 l 1,19,-1
 14 20 l 1,20,-1
 20 20 l 1,21,-1
 18 18 l 1,22,-1
 18 6 l 1,0,-1
EndSplineSet
EndChar

StartChar: V
Encoding: 86 86 45
Width: 19
Flags: W
LayerCount: 2
Fore
SplineSet
15 18 m 1,0,-1
 13 20 l 1,1,-1
 19 20 l 1,2,-1
 17 18 l 1,3,-1
 10 0 l 1,4,-1
 9 -1 l 1,5,-1
 2 18 l 1,6,-1
 0 20 l 1,7,-1
 7 20 l 1,8,-1
 5 18 l 1,9,-1
 10 5 l 1,10,-1
 15 18 l 1,0,-1
EndSplineSet
EndChar

StartChar: W
Encoding: 87 87 46
Width: 26
Flags: W
LayerCount: 2
Fore
SplineSet
15 19 m 1,0,-1
 18 5 l 1,1,-1
 22 18 l 1,2,-1
 20 20 l 1,3,-1
 26 20 l 1,4,-1
 24 18 l 1,5,-1
 18 0 l 1,6,-1
 17 -1 l 1,7,-1
 13 13 l 1,8,-1
 9 0 l 1,9,-1
 8 -1 l 1,10,-1
 2 18 l 1,11,-1
 0 20 l 1,12,-1
 7 20 l 1,13,-1
 5 18 l 1,14,-1
 9 5 l 1,15,-1
 12 18 l 1,16,-1
 15 19 l 1,0,-1
EndSplineSet
EndChar

StartChar: X
Encoding: 88 88 47
Width: 21
Flags: W
LayerCount: 2
Fore
SplineSet
16 18 m 1,0,-1
 14 20 l 1,1,-1
 20 20 l 1,2,-1
 18 18 l 1,3,-1
 12 11 l 1,4,-1
 18 3 l 1,5,-1
 20 0 l 1,6,-1
 13 0 l 1,7,-1
 15 2 l 1,8,-1
 10 9 l 1,9,-1
 5 2 l 1,10,-1
 7 0 l 1,11,-1
 1 0 l 1,12,-1
 3 2 l 1,13,-1
 9 10 l 1,14,-1
 3 17 l 1,15,-1
 1 20 l 1,16,-1
 8 20 l 1,17,-1
 6 18 l 1,18,-1
 11 12 l 1,19,-1
 16 18 l 1,0,-1
EndSplineSet
EndChar

StartChar: Y
Encoding: 89 89 48
Width: 17
Flags: W
LayerCount: 2
Fore
SplineSet
9 11 m 1,0,-1
 10 11 l 1,1,-1
 13 17 l 1,2,-1
 13 18 l 1,3,-1
 11 20 l 1,4,-1
 17 20 l 1,5,-1
 15 18 l 1,6,-1
 10 9 l 1,7,-1
 10 2 l 1,8,-1
 12 0 l 1,9,-1
 5 0 l 1,10,-1
 7 2 l 1,11,-1
 7 9 l 1,12,-1
 2 18 l 1,13,-1
 0 20 l 1,14,-1
 7 20 l 1,15,-1
 5 18 l 1,16,-1
 9 11 l 1,0,-1
EndSplineSet
EndChar

StartChar: Z
Encoding: 90 90 49
Width: 20
Flags: W
LayerCount: 2
Fore
SplineSet
7 1 m 1,0,-1
 14 1 l 1,1,-1
 17 6 l 1,2,-1
 18 6 l 1,3,-1
 17 -1 l 1,4,-1
 15 0 l 1,5,-1
 2 0 l 1,6,-1
 2 1 l 1,7,-1
 13 19 l 1,8,-1
 6 19 l 1,9,-1
 3 15 l 1,10,-1
 2 15 l 1,11,-1
 3 21 l 1,12,-1
 6 20 l 1,13,-1
 18 20 l 1,14,-1
 7 2 l 1,15,-1
 7 1 l 1,0,-1
EndSplineSet
EndChar

StartChar: k
Encoding: 107 107 50
Width: 16
Flags: W
LayerCount: 2
Fore
SplineSet
1 19 m 1,0,-1
 6 21 l 1,1,-1
 6 7 l 1,2,-1
 11 12 l 1,3,-1
 9 14 l 1,4,-1
 15 14 l 1,5,-1
 13 12 l 1,6,-1
 10 9 l 1,7,-1
 15 2 l 1,8,-1
 16 0 l 1,9,-1
 13 0 l 1,10,-1
 12 1 l 1,11,-1
 8 7 l 1,12,-1
 6 5 l 1,13,-1
 6 2 l 1,14,-1
 8 0 l 1,15,-1
 1 0 l 1,16,-1
 3 2 l 1,17,-1
 3 18 l 1,18,-1
 1 19 l 1,0,-1
EndSplineSet
EndChar

StartChar: v
Encoding: 118 118 51
Width: 15
Flags: W
LayerCount: 2
Fore
SplineSet
8 0 m 1,0,-1
 6 0 l 1,1,-1
 2 12 l 1,2,-1
 0 14 l 1,3,-1
 7 14 l 1,4,-1
 5 12 l 1,5,-1
 8 3 l 1,6,-1
 11 12 l 1,7,-1
 9 14 l 1,8,-1
 15 14 l 1,9,-1
 13 12 l 1,10,-1
 9 2 l 1,11,-1
 8 0 l 1,0,-1
EndSplineSet
EndChar

StartChar: w
Encoding: 119 119 52
Width: 23
Flags: W
LayerCount: 2
Fore
SplineSet
11 8 m 1,0,-1
 9 2 l 1,1,-1
 8 0 l 1,2,-1
 6 0 l 1,3,-1
 2 12 l 1,4,-1
 0 14 l 1,5,-1
 7 14 l 1,6,-1
 5 12 l 1,7,-1
 8 3 l 1,8,-1
 11 12 l 1,9,-1
 13 13 l 1,10,-1
 16 3 l 1,11,-1
 19 12 l 1,12,-1
 17 14 l 1,13,-1
 23 14 l 1,14,-1
 21 12 l 1,15,-1
 17 2 l 1,16,-1
 16 0 l 1,17,-1
 14 0 l 1,18,-1
 11 8 l 1,0,-1
EndSplineSet
EndChar

StartChar: x
Encoding: 120 120 53
Width: 17
Flags: W
LayerCount: 2
Fore
SplineSet
14 2 m 1,0,-1
 16 0 l 1,1,-1
 9 0 l 1,2,-1
 11 2 l 1,3,-1
 8 6 l 1,4,-1
 5 2 l 1,5,-1
 7 0 l 1,6,-1
 1 0 l 1,7,-1
 3 2 l 1,8,-1
 7 7 l 1,9,-1
 3 12 l 1,10,-1
 1 14 l 1,11,-1
 8 14 l 1,12,-1
 6 12 l 1,13,-1
 9 8 l 1,14,-1
 12 12 l 1,15,-1
 10 14 l 1,16,-1
 16 14 l 1,17,-1
 14 12 l 1,18,-1
 10 7 l 1,19,-1
 14 2 l 1,0,-1
EndSplineSet
EndChar

StartChar: y
Encoding: 121 121 54
Width: 14
Flags: W
LayerCount: 2
Fore
SplineSet
6 0 m 1,0,-1
 2 12 l 1,1,-1
 0 14 l 1,2,-1
 7 14 l 1,3,-1
 5 12 l 1,4,-1
 8 3 l 1,5,-1
 11 12 l 1,6,-1
 9 14 l 1,7,-1
 14 14 l 1,8,-1
 13 12 l 1,9,-1
 5 -8 l 1,10,-1
 3 -7 l 1,11,-1
 6 0 l 1,0,-1
EndSplineSet
EndChar

StartChar: z
Encoding: 122 122 55
Width: 14
Flags: W
LayerCount: 2
Fore
SplineSet
5 1 m 1,0,-1
 10 1 l 1,1,-1
 12 4 l 1,2,-1
 13 4 l 1,3,-1
 13 0 l 1,4,-1
 1 0 l 1,5,-1
 1 1 l 1,6,-1
 9 13 l 1,7,-1
 5 13 l 1,8,-1
 3 10 l 1,9,-1
 2 10 l 1,10,-1
 2 14 l 1,11,-1
 13 14 l 1,12,-1
 5 2 l 1,13,-1
 5 1 l 1,0,-1
EndSplineSet
EndChar

StartChar: one
Encoding: 49 49 56
Width: 9
Flags: W
LayerCount: 2
Fore
SplineSet
4 19 m 1,0,-1
 6 20 l 1,1,-1
 6 2 l 1,2,-1
 8 0 l 1,3,-1
 1 0 l 1,4,-1
 3 2 l 1,5,-1
 3 15 l 1,6,-1
 1 15 l 1,7,-1
 1 16 l 1,8,-1
 3 17 l 1,9,-1
 4 19 l 1,0,-1
EndSplineSet
EndChar

StartChar: two
Encoding: 50 50 57
Width: 15
Flags: W
LayerCount: 2
Fore
SplineSet
4 17 m 1,0,-1
 2 15 l 1,1,-1
 1 16 l 1,2,-1
 3 19 l 1,3,-1
 6 20 l 1,4,-1
 9 20 l 1,5,-1
 11 19 l 1,6,-1
 13 17 l 1,7,-1
 13 13 l 1,8,-1
 12 11 l 1,9,-1
 9 8 l 1,10,-1
 4 4 l 1,11,-1
 3 2 l 1,12,-1
 11 2 l 1,13,-1
 13 4 l 1,14,-1
 14 4 l 1,15,-1
 13 0 l 1,16,-1
 1 0 l 1,17,-1
 1 1 l 1,18,-1
 2 4 l 1,19,-1
 9 12 l 1,20,-1
 10 15 l 1,21,-1
 9 17 l 1,22,-1
 7 18 l 1,23,-1
 6 18 l 1,24,-1
 4 17 l 1,0,-1
EndSplineSet
EndChar

StartChar: three
Encoding: 51 51 58
Width: 16
Flags: W
LayerCount: 2
Fore
SplineSet
10 11 m 1,0,-1
 12 10 l 1,1,-1
 14 8 l 1,2,-1
 14 4 l 1,3,-1
 12 1 l 1,4,-1
 8 0 l 1,5,-1
 5 0 l 1,6,-1
 2 2 l 1,7,-1
 1 4 l 1,8,-1
 4 5 l 1,9,-1
 4 3 l 1,10,-1
 6 1 l 1,11,-1
 8 1 l 1,12,-1
 10 2 l 1,13,-1
 11 5 l 1,14,-1
 11 7 l 1,15,-1
 9 9 l 1,16,-1
 7 10 l 1,17,-1
 4 9 l 1,18,-1
 5 12 l 1,19,-1
 7 11 l 1,20,-1
 9 12 l 1,21,-1
 10 15 l 1,22,-1
 9 17 l 1,23,-1
 7 18 l 1,24,-1
 6 18 l 1,25,-1
 4 17 l 1,26,-1
 2 15 l 1,27,-1
 1 16 l 1,28,-1
 3 19 l 1,29,-1
 6 20 l 1,30,-1
 9 20 l 1,31,-1
 11 19 l 1,32,-1
 13 17 l 1,33,-1
 13 13 l 1,34,-1
 10 11 l 1,0,-1
EndSplineSet
EndChar

StartChar: four
Encoding: 52 52 59
Width: 16
Flags: W
LayerCount: 2
Fore
SplineSet
10 7 m 1,0,-1
 10 17 l 1,1,-1
 4 7 l 1,2,3
 4 7 4 7 10 7 c 1,0,-1
9 20 m 1,4,-1
 12 21 l 1,5,-1
 12 7 l 1,6,-1
 15 7 l 1,7,-1
 15 5 l 1,8,-1
 12 5 l 1,9,-1
 12 2 l 1,10,-1
 14 0 l 1,11,-1
 7 0 l 1,12,-1
 9 2 l 1,13,-1
 9 5 l 1,14,-1
 2 5 l 1,15,-1
 1 7 l 1,16,-1
 9 20 l 1,4,-1
EndSplineSet
EndChar

StartChar: five
Encoding: 53 53 60
Width: 16
Flags: W
LayerCount: 2
Fore
SplineSet
12 17 m 1,0,-1
 5 17 l 1,1,-1
 4 12 l 1,2,-1
 6 13 l 1,3,-1
 10 13 l 1,4,-1
 12 12 l 1,5,-1
 14 9 l 1,6,-1
 14 4 l 1,7,-1
 12 1 l 1,8,-1
 8 0 l 1,9,-1
 5 0 l 1,10,-1
 2 2 l 1,11,-1
 1 4 l 1,12,-1
 4 5 l 1,13,-1
 4 3 l 1,14,-1
 6 1 l 1,15,-1
 8 1 l 1,16,-1
 10 2 l 1,17,-1
 11 5 l 1,18,-1
 11 9 l 1,19,-1
 9 12 l 1,20,-1
 6 12 l 1,21,-1
 2 9 l 1,22,-1
 4 20 l 1,23,-1
 13 20 l 1,24,-1
 12 17 l 1,0,-1
EndSplineSet
EndChar

StartChar: six
Encoding: 54 54 61
Width: 16
Flags: W
LayerCount: 2
Fore
SplineSet
4 8 m 1,0,-1
 3 6 l 1,1,-1
 3 5 l 1,2,-1
 4 3 l 1,3,-1
 6 1 l 1,4,-1
 8 1 l 1,5,-1
 10 3 l 1,6,-1
 11 5 l 1,7,-1
 11 6 l 1,8,-1
 10 9 l 1,9,-1
 7 10 l 1,10,-1
 4 8 l 1,0,-1
3 9 m 1,11,-1
 6 11 l 1,12,-1
 10 12 l 1,13,-1
 13 10 l 1,14,-1
 14 6 l 1,15,-1
 13 4 l 1,16,-1
 11 1 l 1,17,-1
 8 0 l 1,18,-1
 5 0 l 1,19,-1
 2 2 l 1,20,-1
 1 5 l 1,21,-1
 1 8 l 1,22,-1
 2 13 l 1,23,-1
 4 17 l 1,24,-1
 7 19 l 1,25,-1
 10 20 l 1,26,-1
 11 17 l 1,27,-1
 8 17 l 1,28,-1
 6 16 l 1,29,-1
 4 13 l 1,30,-1
 3 9 l 1,11,-1
EndSplineSet
EndChar

StartChar: quotesingle
Encoding: 39 39 62
Width: 5
Flags: W
LayerCount: 2
Fore
SplineSet
1 14 m 1,0,-1
 1 19 l 1,1,-1
 2 20 l 1,2,-1
 3 20 l 1,3,-1
 4 19 l 1,4,-1
 4 18 l 1,5,-1
 2 15 l 1,6,-1
 1 14 l 1,0,-1
EndSplineSet
EndChar

StartChar: seven
Encoding: 55 55 63
Width: 15
Flags: W
LayerCount: 2
Fore
SplineSet
8 6 m 1,0,-1
 8 0 l 1,1,-1
 4 0 l 1,2,-1
 5 5 l 1,3,-1
 7 10 l 1,4,-1
 12 18 l 1,5,-1
 4 18 l 1,6,-1
 2 15 l 1,7,-1
 1 15 l 1,8,-1
 1 20 l 1,9,-1
 14 20 l 1,10,-1
 14 18 l 1,11,-1
 10 12 l 1,12,-1
 8 6 l 1,0,-1
EndSplineSet
EndChar

StartChar: eight
Encoding: 56 56 64
Width: 16
Flags: W
LayerCount: 2
Fore
SplineSet
6 9 m 1,0,-1
 5 6 l 1,1,-1
 5 5 l 1,2,-1
 6 2 l 1,3,-1
 8 1 l 1,4,-1
 10 2 l 1,5,-1
 11 5 l 1,6,-1
 11 6 l 1,7,-1
 10 8 l 1,8,-1
 7 10 l 1,9,-1
 6 9 l 1,0,-1
9 19 m 1,10,-1
 6 18 l 1,11,-1
 5 16 l 1,12,-1
 6 14 l 1,13,-1
 9 12 l 1,14,-1
 11 13 l 1,15,-1
 12 16 l 1,16,-1
 11 18 l 1,17,-1
 9 19 l 1,10,-1
6 11 m 1,18,-1
 3 13 l 1,19,-1
 2 15 l 1,20,-1
 2 17 l 1,21,-1
 4 19 l 1,22,-1
 7 20 l 1,23,-1
 9 20 l 1,24,-1
 12 19 l 1,25,-1
 14 17 l 1,26,-1
 14 15 l 1,27,-1
 13 13 l 1,28,-1
 10 11 l 1,29,-1
 13 9 l 1,30,-1
 14 7 l 1,31,-1
 14 4 l 1,32,-1
 12 1 l 1,33,-1
 9 0 l 1,34,-1
 6 0 l 1,35,-1
 3 2 l 1,36,-1
 2 4 l 1,37,-1
 2 7 l 1,38,-1
 4 10 l 1,39,-1
 6 11 l 1,18,-1
EndSplineSet
EndChar

StartChar: nine
Encoding: 57 57 65
Width: 17
Flags: W
LayerCount: 2
Fore
SplineSet
11 18 m 1,0,-1
 9 19 l 1,1,-1
 6 18 l 1,2,-1
 5 16 l 1,3,-1
 5 14 l 1,4,-1
 6 11 l 1,5,-1
 8 10 l 1,6,-1
 10 10 l 1,7,-1
 12 12 l 1,8,-1
 12 15 l 1,9,-1
 11 18 l 1,0,-1
5 1 m 1,10,-1
 8 2 l 1,11,-1
 10 4 l 1,12,-1
 12 8 l 1,13,-1
 12 10 l 1,14,-1
 10 9 l 1,15,-1
 7 9 l 1,16,-1
 3 11 l 1,17,-1
 2 14 l 1,18,-1
 3 17 l 1,19,-1
 5 19 l 1,20,-1
 8 20 l 1,21,-1
 11 20 l 1,22,-1
 14 18 l 1,23,-1
 15 15 l 1,24,-1
 15 11 l 1,25,-1
 14 7 l 1,26,-1
 11 3 l 1,27,-1
 9 1 l 1,28,-1
 6 0 l 1,29,-1
 5 0 l 1,30,-1
 5 1 l 1,10,-1
EndSplineSet
EndChar

StartChar: zero
Encoding: 48 48 66
Width: 20
Flags: W
LayerCount: 2
Fore
SplineSet
14 14 m 1,0,-1
 12 18 l 1,1,-1
 10 19 l 1,2,-1
 8 18 l 1,3,-1
 6 14 l 1,4,-1
 6 6 l 1,5,-1
 8 2 l 1,6,-1
 10 1 l 1,7,-1
 12 2 l 1,8,-1
 14 6 l 1,9,-1
 14 14 l 1,0,-1
15 2 m 1,10,-1
 11 0 l 1,11,-1
 9 0 l 1,12,-1
 5 2 l 1,13,-1
 3 5 l 1,14,-1
 2 10 l 1,15,-1
 3 15 l 1,16,-1
 5 18 l 1,17,-1
 9 20 l 1,18,-1
 11 20 l 1,19,-1
 15 18 l 1,20,-1
 17 15 l 1,21,-1
 18 10 l 1,22,-1
 17 5 l 1,23,-1
 15 2 l 1,10,-1
EndSplineSet
EndChar

StartChar: colon
Encoding: 58 58 67
Width: 5
Flags: W
LayerCount: 2
Fore
SplineSet
2 9 m 1,0,-1
 0 10 l 1,1,-1
 0 11 l 1,2,-1
 1 13 l 1,3,-1
 2 13 l 1,4,-1
 4 12 l 1,5,-1
 4 11 l 1,6,-1
 3 9 l 1,7,-1
 2 9 l 1,0,-1
2 0 m 1,8,-1
 0 1 l 1,9,-1
 0 2 l 1,10,-1
 1 4 l 1,11,-1
 2 4 l 1,12,-1
 4 3 l 1,13,-1
 4 2 l 1,14,-1
 3 0 l 1,15,-1
 2 0 l 1,8,-1
EndSplineSet
EndChar

StartChar: semicolon
Encoding: 59 59 68
Width: 6
Flags: W
LayerCount: 2
Fore
SplineSet
3 9 m 1,0,-1
 1 10 l 1,1,-1
 1 11 l 1,2,-1
 2 13 l 1,3,-1
 3 13 l 1,4,-1
 5 12 l 1,5,-1
 5 11 l 1,6,-1
 4 9 l 1,7,-1
 3 9 l 1,0,-1
3 -3 m 1,8,-1
 0 -3 l 1,9,-1
 0 -2 l 1,10,-1
 2 -2 l 1,11,-1
 3 0 l 1,12,-1
 1 1 l 1,13,-1
 1 2 l 1,14,-1
 2 4 l 1,15,-1
 3 4 l 1,16,-1
 5 3 l 1,17,-1
 5 1 l 1,18,-1
 3 -3 l 1,8,-1
EndSplineSet
EndChar

StartChar: comma
Encoding: 44 44 69
Width: 6
Flags: W
LayerCount: 2
Fore
SplineSet
3 -3 m 1,0,-1
 0 -3 l 1,1,-1
 0 -2 l 1,2,-1
 2 -2 l 1,3,-1
 3 0 l 1,4,-1
 1 1 l 1,5,-1
 1 2 l 1,6,-1
 2 4 l 1,7,-1
 3 4 l 1,8,-1
 5 3 l 1,9,-1
 5 1 l 1,10,-1
 3 -3 l 1,0,-1
EndSplineSet
EndChar

StartChar: exclam
Encoding: 33 33 70
Width: 6
Flags: W
LayerCount: 2
Fore
SplineSet
3 0 m 1,0,-1
 1 1 l 1,1,-1
 1 2 l 1,2,-1
 2 4 l 1,3,-1
 3 4 l 1,4,-1
 5 3 l 1,5,-1
 5 2 l 1,6,-1
 4 0 l 1,7,-1
 3 0 l 1,0,-1
2 20 m 1,8,-1
 4 20 l 1,9,-1
 5 19 l 1,10,-1
 5 16 l 1,11,-1
 4 9 l 1,12,-1
 3 6 l 1,13,-1
 2 9 l 1,14,-1
 1 16 l 1,15,-1
 1 19 l 1,16,-1
 2 20 l 1,8,-1
EndSplineSet
EndChar

StartChar: hyphen
Encoding: 45 45 71
Width: 7
Flags: W
LayerCount: 2
Fore
SplineSet
0 9 m 1,0,-1
 6 9 l 1,1,-1
 6 6 l 1,2,-1
 0 6 l 1,3,-1
 0 9 l 1,0,-1
EndSplineSet
EndChar

StartChar: plus
Encoding: 43 43 72
Width: 15
Flags: W
LayerCount: 2
Fore
SplineSet
0 9 m 1,0,-1
 6 9 l 1,1,-1
 6 15 l 1,2,-1
 8 15 l 1,3,-1
 8 9 l 1,4,-1
 14 9 l 1,5,-1
 14 7 l 1,6,-1
 8 7 l 1,7,-1
 8 1 l 1,8,-1
 6 1 l 1,9,-1
 6 7 l 1,10,-1
 0 7 l 1,11,-1
 0 9 l 1,0,-1
EndSplineSet
EndChar

StartChar: equal
Encoding: 61 61 73
Width: 13
Flags: W
LayerCount: 2
Fore
SplineSet
12 9 m 1,0,-1
 0 9 l 1,1,-1
 0 11 l 1,2,-1
 12 11 l 1,3,-1
 12 9 l 1,0,-1
12 5 m 1,4,-1
 0 5 l 1,5,-1
 0 7 l 1,6,-1
 12 7 l 1,7,-1
 12 5 l 1,4,-1
EndSplineSet
EndChar

StartChar: egrave
Encoding: 232 232 75
Width: 15
Flags: W
LayerCount: 2
Fore
SplineSet
11 16 m 1,0,-1
 10 16 l 1,1,-1
 5 18 l 1,2,-1
 5 19 l 1,3,-1
 6 20 l 1,4,-1
 7 20 l 1,5,-1
 11 16 l 1,0,-1
7 15 m 1,6,-1
 9 15 l 1,7,-1
 12 14 l 1,8,-1
 14 10 l 1,9,-1
 13 8 l 1,10,-1
 5 7 l 1,11,-1
 6 2 l 1,12,-1
 9 1 l 1,13,-1
 11 2 l 1,14,-1
 12 4 l 1,15,-1
 14 3 l 1,16,-1
 12 1 l 1,17,-1
 10 0 l 1,18,-1
 7 0 l 1,19,-1
 4 1 l 1,20,-1
 2 5 l 1,21,-1
 2 10 l 1,22,-1
 4 14 l 1,23,-1
 7 15 l 1,6,-1
8 14 m 1,24,-1
 6 13 l 1,25,-1
 5 8 l 1,26,-1
 10 9 l 1,27,-1
 10 13 l 1,28,-1
 8 14 l 1,24,-1
EndSplineSet
EndChar

StartChar: eacute
Encoding: 233 233 76
Width: 15
Flags: W
LayerCount: 2
Fore
SplineSet
6 16 m 1,0,-1
 10 20 l 1,1,-1
 11 20 l 1,2,-1
 12 19 l 1,3,-1
 12 18 l 1,4,-1
 7 16 l 1,5,-1
 6 16 l 1,0,-1
7 15 m 1,6,-1
 9 15 l 1,7,-1
 12 14 l 1,8,-1
 14 10 l 1,9,-1
 13 8 l 1,10,-1
 5 7 l 1,11,-1
 6 2 l 1,12,-1
 9 1 l 1,13,-1
 11 2 l 1,14,-1
 12 4 l 1,15,-1
 14 3 l 1,16,-1
 12 1 l 1,17,-1
 10 0 l 1,18,-1
 7 0 l 1,19,-1
 4 1 l 1,20,-1
 2 5 l 1,21,-1
 2 10 l 1,22,-1
 4 14 l 1,23,-1
 7 15 l 1,6,-1
8 14 m 1,24,-1
 6 13 l 1,25,-1
 5 8 l 1,26,-1
 10 9 l 1,27,-1
 10 13 l 1,28,-1
 8 14 l 1,24,-1
EndSplineSet
EndChar

StartChar: ecircumflex
Encoding: 234 234 77
Width: 15
Flags: W
LayerCount: 2
Fore
SplineSet
4 16 m 1,0,-1
 7 20 l 1,1,-1
 9 20 l 1,2,-1
 12 16 l 1,3,-1
 11 16 l 1,4,-1
 8 18 l 1,5,-1
 5 16 l 1,6,-1
 4 16 l 1,0,-1
7 15 m 1,7,-1
 9 15 l 1,8,-1
 12 14 l 1,9,-1
 14 10 l 1,10,-1
 13 8 l 1,11,-1
 5 7 l 1,12,-1
 6 2 l 1,13,-1
 9 1 l 1,14,-1
 11 2 l 1,15,-1
 12 4 l 1,16,-1
 14 3 l 1,17,-1
 12 1 l 1,18,-1
 10 0 l 1,19,-1
 7 0 l 1,20,-1
 4 1 l 1,21,-1
 2 5 l 1,22,-1
 2 10 l 1,23,-1
 4 14 l 1,24,-1
 7 15 l 1,7,-1
8 14 m 1,25,-1
 6 13 l 1,26,-1
 5 8 l 1,27,-1
 10 9 l 1,28,-1
 10 13 l 1,29,-1
 8 14 l 1,25,-1
EndSplineSet
EndChar

StartChar: igrave
Encoding: 236 236 78
Width: 9
Flags: W
LayerCount: 2
Fore
SplineSet
6 16 m 1,0,-1
 5 16 l 1,1,-1
 1 18 l 1,2,-1
 1 19 l 1,3,-1
 2 20 l 1,4,-1
 3 20 l 1,5,-1
 6 16 l 1,0,-1
1 13 m 1,6,-1
 6 15 l 1,7,-1
 6 2 l 1,8,-1
 8 0 l 1,9,-1
 1 0 l 1,10,-1
 3 2 l 1,11,-1
 3 12 l 1,12,-1
 1 13 l 1,6,-1
EndSplineSet
EndChar

StartChar: iacute
Encoding: 237 237 79
Width: 9
Flags: W
LayerCount: 2
Fore
SplineSet
2 16 m 1,0,-1
 5 20 l 1,1,-1
 6 20 l 1,2,-1
 7 19 l 1,3,-1
 7 18 l 1,4,-1
 3 16 l 1,5,-1
 2 16 l 1,0,-1
1 13 m 1,6,-1
 6 15 l 1,7,-1
 6 2 l 1,8,-1
 8 0 l 1,9,-1
 1 0 l 1,10,-1
 3 2 l 1,11,-1
 3 12 l 1,12,-1
 1 13 l 1,6,-1
EndSplineSet
EndChar

StartChar: icircumflex
Encoding: 238 238 80
Width: 9
Flags: W
LayerCount: 2
Fore
SplineSet
0 16 m 1,0,-1
 3 20 l 1,1,-1
 5 20 l 1,2,-1
 8 16 l 1,3,-1
 7 16 l 1,4,-1
 4 18 l 1,5,-1
 1 16 l 1,6,-1
 0 16 l 1,0,-1
1 13 m 1,7,-1
 6 15 l 1,8,-1
 6 2 l 1,9,-1
 8 0 l 1,10,-1
 1 0 l 1,11,-1
 3 2 l 1,12,-1
 3 12 l 1,13,-1
 1 13 l 1,7,-1
EndSplineSet
EndChar

StartChar: idieresis
Encoding: 239 239 81
Width: 9
Flags: W
LayerCount: 2
Fore
SplineSet
7 19 m 1,0,-1
 8 18 l 1,1,-1
 8 17 l 1,2,-1
 7 16 l 1,3,-1
 5 16 l 1,4,-1
 5 18 l 1,5,-1
 6 19 l 1,6,-1
 7 19 l 1,0,-1
2 19 m 1,7,-1
 3 18 l 1,8,-1
 3 16 l 1,9,-1
 1 16 l 1,10,-1
 0 17 l 1,11,-1
 0 18 l 1,12,-1
 1 19 l 1,13,-1
 2 19 l 1,7,-1
1 13 m 1,14,-1
 6 15 l 1,15,-1
 6 2 l 1,16,-1
 8 0 l 1,17,-1
 1 0 l 1,18,-1
 3 2 l 1,19,-1
 3 12 l 1,20,-1
 1 13 l 1,14,-1
EndSplineSet
EndChar

StartChar: ae
Encoding: 230 230 82
Width: 22
Flags: W
LayerCount: 2
Fore
SplineSet
5 15 m 1,0,-1
 8 15 l 1,1,-1
 11 14 l 1,2,-1
 14 15 l 1,3,-1
 16 15 l 1,4,-1
 19 14 l 1,5,-1
 21 10 l 1,6,-1
 20 8 l 1,7,-1
 12 7 l 1,8,-1
 13 2 l 1,9,-1
 16 1 l 1,10,-1
 18 2 l 1,11,-1
 19 4 l 1,12,-1
 21 3 l 1,13,-1
 19 1 l 1,14,-1
 17 0 l 1,15,-1
 14 0 l 1,16,-1
 11 1 l 1,17,-1
 10 2 l 1,18,-1
 9 1 l 1,19,-1
 5 0 l 1,20,-1
 4 0 l 1,21,-1
 2 4 l 1,22,-1
 2 8 l 1,23,-1
 9 10 l 1,24,-1
 9 12 l 1,25,-1
 8 14 l 1,26,-1
 5 13 l 1,27,-1
 4 11 l 1,28,-1
 2 13 l 1,29,-1
 5 15 l 1,0,-1
15 14 m 1,30,-1
 13 13 l 1,31,-1
 12 8 l 1,32,-1
 17 9 l 1,33,-1
 17 13 l 1,34,-1
 15 14 l 1,30,-1
9 9 m 1,35,-1
 5 7 l 1,36,-1
 5 4 l 1,37,-1
 6 2 l 1,38,-1
 7 2 l 1,39,-1
 9 4 l 1,40,-1
 9 6 l 1,41,-1
 9 9 l 1,35,-1
EndSplineSet
EndChar

StartChar: ccedilla
Encoding: 231 231 83
Width: 14
Flags: W
LayerCount: 2
Fore
SplineSet
7 -1 m 1,0,-1
 9 -1 l 1,1,-1
 10 -2 l 1,2,-1
 9 -4 l 1,3,-1
 7 -5 l 1,4,-1
 6 -4 l 1,5,-1
 6 -3 l 1,6,-1
 7 -4 l 1,7,-1
 8 -3 l 1,8,-1
 8 -2 l 1,9,-1
 6 -2 l 1,10,-1
 7 0 l 1,11,-1
 4 1 l 1,12,-1
 2 5 l 1,13,-1
 2 10 l 1,14,-1
 4 14 l 1,15,-1
 7 15 l 1,16,-1
 9 15 l 1,17,-1
 12 14 l 1,18,-1
 13 12 l 1,19,-1
 11 10 l 1,20,-1
 10 13 l 1,21,-1
 8 14 l 1,22,-1
 6 13 l 1,23,-1
 5 9 l 1,24,-1
 5 6 l 1,25,-1
 6 2 l 1,26,-1
 9 1 l 1,27,-1
 11 2 l 1,28,-1
 12 4 l 1,29,-1
 14 3 l 1,30,-1
 12 1 l 1,31,-1
 10 0 l 1,32,-1
 8 0 l 1,33,-1
 7 -1 l 1,0,-1
EndSplineSet
EndChar

StartChar: agrave
Encoding: 224 224 84
Width: 14
Flags: W
LayerCount: 2
Fore
SplineSet
10 16 m 1,0,-1
 9 16 l 1,1,-1
 4 18 l 1,2,-1
 4 19 l 1,3,-1
 5 20 l 1,4,-1
 6 20 l 1,5,-1
 10 16 l 1,0,-1
5 15 m 1,6,-1
 8 15 l 1,7,-1
 12 13 l 1,8,-1
 12 2 l 1,9,-1
 14 2 l 1,10,-1
 14 1 l 1,11,-1
 11 0 l 1,12,-1
 9 2 l 1,13,-1
 8 1 l 1,14,-1
 5 0 l 1,15,-1
 4 0 l 1,16,-1
 2 4 l 1,17,-1
 2 8 l 1,18,-1
 9 10 l 1,19,-1
 9 12 l 1,20,-1
 8 14 l 1,21,-1
 5 13 l 1,22,-1
 4 11 l 1,23,-1
 2 13 l 1,24,-1
 5 15 l 1,6,-1
9 9 m 1,25,-1
 5 7 l 1,26,-1
 5 4 l 1,27,-1
 6 2 l 1,28,-1
 7 2 l 1,29,-1
 9 4 l 1,30,-1
 9 9 l 1,25,-1
EndSplineSet
EndChar

StartChar: aacute
Encoding: 225 225 85
Width: 14
Flags: W
LayerCount: 2
Fore
SplineSet
5 15 m 1,0,-1
 8 15 l 1,1,-1
 12 13 l 1,2,-1
 12 2 l 1,3,-1
 14 2 l 1,4,-1
 14 1 l 1,5,-1
 11 0 l 1,6,-1
 9 2 l 1,7,-1
 8 1 l 1,8,-1
 5 0 l 1,9,-1
 4 0 l 1,10,-1
 2 4 l 1,11,-1
 2 8 l 1,12,-1
 9 10 l 1,13,-1
 9 12 l 1,14,-1
 8 14 l 1,15,-1
 5 13 l 1,16,-1
 4 11 l 1,17,-1
 2 13 l 1,18,-1
 5 15 l 1,0,-1
9 9 m 1,19,-1
 5 7 l 1,20,-1
 5 4 l 1,21,-1
 6 2 l 1,22,-1
 7 2 l 1,23,-1
 9 4 l 1,24,-1
 9 9 l 1,19,-1
5 16 m 1,25,-1
 9 20 l 1,26,-1
 10 20 l 1,27,-1
 11 19 l 1,28,-1
 11 18 l 1,29,-1
 6 16 l 1,30,-1
 5 16 l 1,25,-1
EndSplineSet
EndChar

StartChar: acircumflex
Encoding: 226 226 86
Width: 14
Flags: W
LayerCount: 2
Fore
SplineSet
3 16 m 1,0,-1
 6 20 l 1,1,-1
 8 20 l 1,2,-1
 11 16 l 1,3,-1
 10 16 l 1,4,-1
 7 18 l 1,5,-1
 4 16 l 1,6,-1
 3 16 l 1,0,-1
5 15 m 1,7,-1
 8 15 l 1,8,-1
 12 13 l 1,9,-1
 12 2 l 1,10,-1
 14 2 l 1,11,-1
 14 1 l 1,12,-1
 11 0 l 1,13,-1
 9 2 l 1,14,-1
 8 1 l 1,15,-1
 5 0 l 1,16,-1
 4 0 l 1,17,-1
 2 4 l 1,18,-1
 2 8 l 1,19,-1
 9 10 l 1,20,-1
 9 12 l 1,21,-1
 8 14 l 1,22,-1
 5 13 l 1,23,-1
 4 11 l 1,24,-1
 2 13 l 1,25,-1
 5 15 l 1,7,-1
9 9 m 1,26,-1
 5 7 l 1,27,-1
 5 4 l 1,28,-1
 6 2 l 1,29,-1
 7 2 l 1,30,-1
 9 4 l 1,31,-1
 9 9 l 1,26,-1
EndSplineSet
EndChar

StartChar: atilde
Encoding: 227 227 87
Width: 14
Flags: W
LayerCount: 2
Fore
SplineSet
9 17 m 1,0,-1
 11 18 l 1,1,-1
 12 17 l 1,2,-1
 10 16 l 1,3,-1
 8 16 l 1,4,-1
 6 17 l 1,5,-1
 4 16 l 1,6,-1
 3 17 l 1,7,-1
 5 18 l 1,8,-1
 7 18 l 1,9,-1
 9 17 l 1,0,-1
5 15 m 1,10,-1
 8 15 l 1,11,-1
 12 13 l 1,12,-1
 12 2 l 1,13,-1
 14 2 l 1,14,-1
 14 1 l 1,15,-1
 11 0 l 1,16,-1
 9 2 l 1,17,-1
 8 1 l 1,18,-1
 5 0 l 1,19,-1
 4 0 l 1,20,-1
 2 4 l 1,21,-1
 2 8 l 1,22,-1
 9 10 l 1,23,-1
 9 12 l 1,24,-1
 8 14 l 1,25,-1
 5 13 l 1,26,-1
 4 11 l 1,27,-1
 2 13 l 1,28,-1
 5 15 l 1,10,-1
9 9 m 1,29,-1
 5 7 l 1,30,-1
 5 4 l 1,31,-1
 6 2 l 1,32,-1
 7 2 l 1,33,-1
 9 4 l 1,34,-1
 9 9 l 1,29,-1
EndSplineSet
EndChar

StartChar: adieresis
Encoding: 228 228 88
Width: 14
Flags: W
LayerCount: 2
Fore
SplineSet
10 20 m 1,0,-1
 11 19 l 1,1,-1
 11 18 l 1,2,-1
 10 17 l 1,3,-1
 8 17 l 1,4,-1
 8 19 l 1,5,-1
 9 20 l 1,6,-1
 10 20 l 1,0,-1
5 20 m 1,7,-1
 6 19 l 1,8,-1
 6 17 l 1,9,-1
 4 17 l 1,10,-1
 3 18 l 1,11,-1
 3 19 l 1,12,-1
 4 20 l 1,13,-1
 5 20 l 1,7,-1
5 15 m 1,14,-1
 8 15 l 1,15,-1
 12 13 l 1,16,-1
 12 2 l 1,17,-1
 14 2 l 1,18,-1
 14 1 l 1,19,-1
 11 0 l 1,20,-1
 9 2 l 1,21,-1
 8 1 l 1,22,-1
 5 0 l 1,23,-1
 4 0 l 1,24,-1
 2 4 l 1,25,-1
 2 8 l 1,26,-1
 9 10 l 1,27,-1
 9 12 l 1,28,-1
 8 14 l 1,29,-1
 5 13 l 1,30,-1
 4 11 l 1,31,-1
 2 13 l 1,32,-1
 5 15 l 1,14,-1
9 9 m 1,33,-1
 5 7 l 1,34,-1
 5 4 l 1,35,-1
 6 2 l 1,36,-1
 7 2 l 1,37,-1
 9 4 l 1,38,-1
 9 9 l 1,33,-1
EndSplineSet
EndChar

StartChar: aring
Encoding: 229 229 89
Width: 14
Flags: W
LayerCount: 2
Fore
SplineSet
5 18 m 1,0,-1
 7 17 l 1,1,-1
 9 18 l 1,2,-1
 7 19 l 1,3,-1
 5 18 l 1,0,-1
10 18 m 1,4,-1
 8 16 l 1,5,-1
 6 16 l 1,6,-1
 4 18 l 1,7,-1
 6 20 l 1,8,-1
 8 20 l 1,9,-1
 10 18 l 1,4,-1
5 15 m 1,10,-1
 8 15 l 1,11,-1
 12 13 l 1,12,-1
 12 2 l 1,13,-1
 14 2 l 1,14,-1
 14 1 l 1,15,-1
 11 0 l 1,16,-1
 9 2 l 1,17,-1
 8 1 l 1,18,-1
 5 0 l 1,19,-1
 4 0 l 1,20,-1
 2 4 l 1,21,-1
 2 8 l 1,22,-1
 9 10 l 1,23,-1
 9 12 l 1,24,-1
 8 14 l 1,25,-1
 5 13 l 1,26,-1
 4 11 l 1,27,-1
 2 13 l 1,28,-1
 5 15 l 1,10,-1
9 9 m 1,29,-1
 5 7 l 1,30,-1
 5 4 l 1,31,-1
 6 2 l 1,32,-1
 7 2 l 1,33,-1
 9 4 l 1,34,-1
 9 9 l 1,29,-1
EndSplineSet
EndChar

StartChar: slash
Encoding: 47 47 90
Width: 8
Flags: W
LayerCount: 2
Fore
SplineSet
5 19 m 1,0,-1
 7 19 l 1,1,-1
 2 -2 l 1,2,-1
 0 -2 l 1,3,-1
 5 19 l 1,0,-1
EndSplineSet
EndChar

StartChar: ampersand
Encoding: 38 38 91
Width: 19
Flags: W
LayerCount: 2
Fore
SplineSet
6 10 m 1,0,-1
 5 9 l 1,1,-1
 4 8 l 1,2,-1
 3 5 l 1,3,-1
 4 2 l 1,4,-1
 7 1 l 1,5,-1
 9 2 l 1,6,-1
 11 4 l 1,7,-1
 6 10 l 1,0,-1
7 19 m 1,8,-1
 5 18 l 1,9,-1
 4 16 l 1,10,-1
 5 14 l 1,11,-1
 7 12 l 1,12,-1
 9 14 l 1,13,-1
 10 16 l 1,14,-1
 9 18 l 1,15,-1
 7 19 l 1,8,-1
17 10 m 1,16,-1
 15 8 l 1,17,-1
 13 5 l 1,18,-1
 15 1 l 1,19,-1
 15 0 l 1,20,-1
 14 0 l 1,21,-1
 12 3 l 1,22,-1
 10 1 l 1,23,-1
 8 0 l 1,24,-1
 4 0 l 1,25,-1
 1 2 l 1,26,-1
 0 4 l 1,27,-1
 0 6 l 1,28,-1
 2 9 l 1,29,-1
 5 11 l 1,30,-1
 3 13 l 1,31,-1
 2 15 l 1,32,-1
 2 17 l 1,33,-1
 4 19 l 1,34,-1
 6 20 l 1,35,-1
 8 20 l 1,36,-1
 11 19 l 1,37,-1
 12 17 l 1,38,-1
 12 15 l 1,39,-1
 11 13 l 1,40,-1
 8 11 l 1,41,-1
 12 6 l 1,42,-1
 13 8 l 1,43,-1
 12 10 l 1,44,-1
 17 10 l 1,16,-1
EndSplineSet
EndChar
